<svg xmlns="http://www.w3.org/2000/svg" width="10000" height="10000" viewBox="0 0 10000 10000">
<text x="0" y ="26" font-size="26" fill="black">
able</text>
<text x="0" y ="45" font-size="19" fill="black">
abstractions</text>
<text x="0" y ="64" font-size="19" fill="black">
address</text>
<text x="0" y ="83" font-size="19" fill="black">
adds</text>
<text x="0" y ="102" font-size="19" fill="black">
also</text><text x="0" y ="128" font-size="26" fill="black">always</text><text x="0" y ="147" font-size="19" fill="black">another</text><text x="0" y ="166" font-size="19" fill="black">answer</text><text x="0" y ="199" font-size="33" fill="black">applications</text><text x="0" y ="253" font-size="54" fill="black">articles</text><text x="0" y ="279" font-size="26" fill="black">ask</text><text x="0" y ="298" font-size="19" fill="black">aspect</text><text x="0" y ="324" font-size="26" fill="black">aware</text><text x="0" y ="343" font-size="19" fill="black">back</text><text x="0" y ="362" font-size="19" fill="black">begins</text><text x="0" y ="395" font-size="33" fill="black">benefit</text><text x="0" y ="421" font-size="26" fill="black">better</text><text x="0" y ="440" font-size="19" fill="black">build</text><text x="0" y ="466" font-size="26" fill="black">c</text><text x="0" y ="506" font-size="40" fill="black">c++</text><text x="0" y ="525" font-size="19" fill="black">carrying</text><text x="0" y ="551" font-size="26" fill="black">case</text><text x="0" y ="577" font-size="26" fill="black">category</text><text x="0" y ="596" font-size="19" fill="black">certainly</text><text x="0" y ="615" font-size="19" fill="black">challenges</text><text x="0" y ="634" font-size="19" fill="black">challenging</text><text x="0" y ="660" font-size="26" fill="black">change</text><text x="0" y ="679" font-size="19" fill="black">changes</text><text x="0" y ="698" font-size="19" fill="black">checking</text><text x="0" y ="717" font-size="19" fill="black">classic</text><text x="0" y ="736" font-size="19" fill="black">clean</text><text x="0" y ="769" font-size="33" fill="black">code</text><text x="0" y ="788" font-size="19" fill="black">cognitive</text><text x="0" y ="807" font-size="19" fill="black">collaborations</text><text x="0" y ="833" font-size="26" fill="black">come</text><text x="0" y ="852" font-size="19" fill="black">command</text><text x="0" y ="871" font-size="19" fill="black">committed</text><text x="0" y ="897" font-size="26" fill="black">complicated</text><text x="0" y ="916" font-size="19" fill="black">compute</text><text x="0" y ="935" font-size="19" fill="black">computed</text><text x="0" y ="968" font-size="33" fill="black">computing</text><text x="0" y ="987" font-size="19" fill="black">conceivable</text><text x="0" y ="1006" font-size="19" fill="black">context</text><text x="0" y ="1025" font-size="19" fill="black">covering</text><text x="0" y ="1044" font-size="19" fill="black">cpp</text><text x="0" y ="1063" font-size="19" fill="black">curiosity</text><text x="0" y ="1089" font-size="26" fill="black">data</text><text x="0" y ="1108" font-size="19" fill="black">decide</text><text x="0" y ="1155" font-size="47" fill="black">decomposition</text><text x="0" y ="1174" font-size="19" fill="black">defeats</text><text x="0" y ="1193" font-size="19" fill="black">defined</text><text x="0" y ="1212" font-size="19" fill="black">design</text><text x="0" y ="1231" font-size="19" fill="black">designed</text><text x="0" y ="1257" font-size="26" fill="black">develop</text><text x="0" y ="1276" font-size="19" fill="black">devising</text><text x="0" y ="1295" font-size="19" fill="black">different</text><text x="0" y ="1314" font-size="19" fill="black">dimension</text><text x="0" y ="1333" font-size="19" fill="black">dimensions</text><text x="0" y ="1352" font-size="19" fill="black">displaying</text><text x="0" y ="1371" font-size="19" fill="black">done</text><text x="0" y ="1390" font-size="19" fill="black">dot</text><text x="0" y ="1416" font-size="26" fill="black">e</text><text x="0" y ="1435" font-size="19" fill="black">easy</text><text x="0" y ="1454" font-size="19" fill="black">enable</text><text x="0" y ="1473" font-size="19" fill="black">ends</text><text x="0" y ="1506" font-size="33" fill="black">engineering</text><text x="0" y ="1532" font-size="26" fill="black">enough</text><text x="0" y ="1551" font-size="19" fill="black">ensures</text><text x="0" y ="1570" font-size="19" fill="black">errors</text><text x="0" y ="1589" font-size="19" fill="black">etc</text><text x="0" y ="1615" font-size="26" fill="black">even</text><text x="0" y ="1634" font-size="19" fill="black">exactly</text><text x="0" y ="1674" font-size="40" fill="black">example</text><text x="0" y ="1728" font-size="54" fill="black">examples</text><text x="0" y ="1747" font-size="19" fill="black">exceptions</text><text x="0" y ="1766" font-size="19" fill="black">existing</text><text x="0" y ="1785" font-size="19" fill="black">fact</text><text x="0" y ="1804" font-size="19" fill="black">fall</text><text x="0" y ="1823" font-size="19" fill="black">feature</text><text x="0" y ="1870" font-size="47" fill="black">features</text><text x="0" y ="1889" font-size="19" fill="black">file</text><text x="0" y ="1915" font-size="26" fill="black">first</text><text x="0" y ="1934" font-size="19" fill="black">former</text><text x="0" y ="1953" font-size="19" fill="black">four</text><text x="0" y ="1972" font-size="19" fill="black">frame</text><text x="0" y ="1991" font-size="19" fill="black">g</text><text x="0" y ="2010" font-size="19" fill="black">george</text><text x="0" y ="2029" font-size="19" fill="black">give</text><text x="0" y ="2048" font-size="19" fill="black">glad</text><text x="0" y ="2074" font-size="26" fill="black">going</text><text x="0" y ="2100" font-size="26" fill="black">good</text><text x="0" y ="2119" font-size="19" fill="black">groups</text><text x="0" y ="2138" font-size="19" fill="black">guarantee</text><text x="0" y ="2157" font-size="19" fill="black">habits</text><text x="0" y ="2197" font-size="40" fill="black">handling</text><text x="0" y ="2216" font-size="19" fill="black">handy</text><text x="0" y ="2235" font-size="19" fill="black">help</text><text x="0" y ="2254" font-size="19" fill="black">identical</text><text x="0" y ="2301" font-size="47" fill="black">inner</text><text x="0" y ="2355" font-size="54" fill="black">input</text><text x="0" y ="2374" font-size="19" fill="black">inputs</text><text x="0" y ="2393" font-size="19" fill="black">inputting</text><text x="0" y ="2412" font-size="19" fill="black">introducing</text><text x="0" y ="2431" font-size="19" fill="black">isolated</text><text x="0" y ="2450" font-size="19" fill="black">job</text><text x="0" y ="2469" font-size="19" fill="black">kind</text><text x="0" y ="2495" font-size="26" fill="black">know</text><text x="0" y ="2549" font-size="54" fill="black">language</text><text x="0" y ="2568" font-size="19" fill="black">large</text><text x="0" y ="2601" font-size="33" fill="black">learn</text><text x="0" y ="2648" font-size="47" fill="black">learning</text><text x="0" y ="2667" font-size="19" fill="black">let</text><text x="0" y ="2686" font-size="19" fill="black">like</text><text x="0" y ="2705" font-size="19" fill="black">limit</text><text x="0" y ="2724" font-size="19" fill="black">line</text><text x="0" y ="2743" font-size="19" fill="black">lines</text><text x="0" y ="2769" font-size="26" fill="black">ll</text><text x="0" y ="2788" font-size="19" fill="black">loc</text><text x="0" y ="2835" font-size="47" fill="black">long</text><text x="0" y ="2861" font-size="26" fill="black">look</text><text x="0" y ="2880" font-size="19" fill="black">looking</text><text x="0" y ="2899" font-size="19" fill="black">main</text><text x="0" y ="2918" font-size="19" fill="black">make</text><text x="0" y ="2937" font-size="19" fill="black">makes</text><text x="0" y ="2963" font-size="26" fill="black">malformed</text><text x="0" y ="2996" font-size="33" fill="black">many</text><text x="0" y ="3015" font-size="19" fill="black">mathematical</text><text x="0" y ="3041" font-size="26" fill="black">may</text><text x="0" y ="3060" font-size="19" fill="black">measured</text><text x="0" y ="3086" font-size="26" fill="black">mind</text><text x="0" y ="3105" font-size="19" fill="black">modify</text><text x="0" y ="3124" font-size="19" fill="black">must</text><text x="0" y ="3143" font-size="19" fill="black">name</text><text x="0" y ="3162" font-size="19" fill="black">nearly</text><text x="0" y ="3181" font-size="19" fill="black">necessary</text><text x="0" y ="3200" font-size="19" fill="black">need</text><text x="0" y ="3254" font-size="54" fill="black">new</text><text x="0" y ="3273" font-size="19" fill="black">next</text><text x="0" y ="3292" font-size="19" fill="black">now</text><text x="0" y ="3311" font-size="19" fill="black">number</text><text x="0" y ="3344" font-size="33" fill="black">object</text><text x="0" y ="3377" font-size="33" fill="black">object-oriented</text><text x="0" y ="3403" font-size="26" fill="black">objects</text><text x="0" y ="3422" font-size="19" fill="black">obvious</text><text x="0" y ="3441" font-size="19" fill="black">one</text><text x="0" y ="3460" font-size="19" fill="black">ones</text><text x="0" y ="3479" font-size="19" fill="black">online</text><text x="0" y ="3498" font-size="19" fill="black">opportunities</text><text x="0" y ="3517" font-size="19" fill="black">option</text><text x="0" y ="3536" font-size="19" fill="black">organize</text><text x="0" y ="3569" font-size="33" fill="black">orientation</text><text x="0" y ="3588" font-size="19" fill="black">output</text><text x="0" y ="3607" font-size="19" fill="black">place</text><text x="0" y ="3633" font-size="26" fill="black">plan</text><text x="0" y ="3652" font-size="19" fill="black">practical</text><text x="0" y ="3685" font-size="33" fill="black">practices</text><text x="0" y ="3704" font-size="19" fill="black">preference</text><text x="0" y ="3765" font-size="61" fill="black">problem</text><text x="0" y ="3784" font-size="19" fill="black">problem-solving</text><text x="0" y ="3810" font-size="26" fill="black">problems</text><text x="0" y ="3829" font-size="19" fill="black">process</text><text x="0" y ="3883" font-size="54" fill="black">product</text><text x="0" y ="3944" font-size="61" fill="black">program</text><text x="0" y ="3963" font-size="19" fill="black">programming</text><text x="0" y ="3982" font-size="19" fill="black">prompts</text><text x="0" y ="4001" font-size="19" fill="black">purpose</text><text x="0" y ="4020" font-size="19" fill="black">put</text><text x="0" y ="4039" font-size="19" fill="black">pólya</text><text x="0" y ="4058" font-size="19" fill="black">re</text><text x="0" y ="4077" font-size="19" fill="black">react</text><text x="0" y ="4096" font-size="19" fill="black">read</text><text x="0" y ="4115" font-size="19" fill="black">real</text><text x="0" y ="4134" font-size="19" fill="black">really</text><text x="0" y ="4153" font-size="19" fill="black">reasons</text><text x="0" y ="4172" font-size="19" fill="black">representing</text><text x="0" y ="4191" font-size="19" fill="black">require</text><text x="0" y ="4210" font-size="19" fill="black">required</text><text x="0" y ="4229" font-size="19" fill="black">resources</text><text x="0" y ="4276" font-size="47" fill="black">running</text><text x="0" y ="4295" font-size="19" fill="black">said</text><text x="0" y ="4314" font-size="19" fill="black">second</text><text x="0" y ="4333" font-size="19" fill="black">sense</text><text x="0" y ="4352" font-size="19" fill="black">separate</text><text x="0" y ="4371" font-size="19" fill="black">sets</text><text x="0" y ="4390" font-size="19" fill="black">short</text><text x="0" y ="4409" font-size="19" fill="black">simple</text><text x="0" y ="4428" font-size="19" fill="black">simultaneously</text><text x="0" y ="4454" font-size="26" fill="black">since</text><text x="0" y ="4473" font-size="19" fill="black">single</text><text x="0" y ="4492" font-size="19" fill="black">size</text><text x="0" y ="4511" font-size="19" fill="black">small</text><text x="0" y ="4537" font-size="26" fill="black">software</text><text x="0" y ="4563" font-size="26" fill="black">solve</text><text x="0" y ="4582" font-size="19" fill="black">solves</text><text x="0" y ="4608" font-size="26" fill="black">solving</text><text x="0" y ="4627" font-size="19" fill="black">something</text><text x="0" y ="4646" font-size="19" fill="black">somewhat</text><text x="0" y ="4665" font-size="19" fill="black">spaces</text><text x="0" y ="4684" font-size="19" fill="black">spend</text><text x="0" y ="4703" font-size="19" fill="black">start</text><text x="0" y ="4722" font-size="19" fill="black">statement</text><text x="0" y ="4741" font-size="19" fill="black">steps</text><text x="0" y ="4760" font-size="19" fill="black">still</text><text x="0" y ="4786" font-size="26" fill="black">sub-problem</text><text x="0" y ="4819" font-size="33" fill="black">sub-problems</text><text x="0" y ="4838" font-size="19" fill="black">superset</text><text x="0" y ="4864" font-size="26" fill="black">take</text><text x="0" y ="4883" font-size="19" fill="black">templates</text><text x="0" y ="4902" font-size="19" fill="black">textbooks</text><text x="0" y ="4921" font-size="19" fill="black">think</text><text x="0" y ="4940" font-size="19" fill="black">third</text><text x="0" y ="4959" font-size="19" fill="black">threaded</text><text x="0" y ="4992" font-size="33" fill="black">three</text><text x="0" y ="5011" font-size="19" fill="black">thus</text><text x="0" y ="5037" font-size="26" fill="black">time</text><text x="0" y ="5056" font-size="19" fill="black">time;</text><text x="0" y ="5075" font-size="19" fill="black">trying</text><text x="0" y ="5115" font-size="40" fill="black">two</text><text x="0" y ="5134" font-size="19" fill="black">type</text><text x="0" y ="5153" font-size="19" fill="black">understand</text><text x="0" y ="5172" font-size="19" fill="black">understanding</text><text x="0" y ="5191" font-size="19" fill="black">units</text><text x="0" y ="5210" font-size="19" fill="black">us</text><text x="0" y ="5229" font-size="19" fill="black">use</text><text x="0" y ="5255" font-size="26" fill="black">useful</text><text x="0" y ="5302" font-size="47" fill="black">user</text><text x="0" y ="5321" font-size="19" fill="black">usually</text><text x="0" y ="5347" font-size="26" fill="black">vector</text><text x="0" y ="5401" font-size="54" fill="black">vectors</text><text x="0" y ="5427" font-size="26" fill="black">want</text><text x="0" y ="5460" font-size="33" fill="black">way</text><text x="0" y ="5479" font-size="19" fill="black">well-formed</text><text x="0" y ="5498" font-size="19" fill="black">well-known</text><text x="0" y ="5517" font-size="19" fill="black">without</text><text x="0" y ="5557" font-size="40" fill="black">work</text><text x="0" y ="5576" font-size="19" fill="black">working</text><text x="0" y ="5595" font-size="19" fill="black">world</text><text x="0" y ="5614" font-size="19" fill="black">would</text><text x="0" y ="5633" font-size="19" fill="black">write</text><text x="0" y ="5659" font-size="26" fill="black">writing</text></svg>